<svg width="75" height="75" viewBox="0 0 75 75" fill="none" xmlns="http://www.w3.org/2000/svg">
<circle cx="37.5" cy="37.5" r="37.5" fill="#2E353D"/>
<path d="M37.9999 39.7678L45.4499 47.2183L37.9999 54.6666L30.5499 47.2166L37.9999 39.7678ZM24.6661 44.8678L31.1311 51.3328L24.6666 51.3333L24.6661 44.8678ZM51.3328 44.8678L51.3333 51.3333L44.8678 51.3328L51.3328 44.8678ZM47.2166 30.5499L54.6666 37.9999L47.2183 45.4499L39.7678 37.9999L47.2166 30.5499ZM28.7833 30.5499L36.2321 37.9999L28.7816 45.4483L21.3333 37.9999L28.7833 30.5499ZM37.9999 21.3333L45.4483 28.7816L37.9999 36.2321L30.5499 28.7833L37.9999 21.3333ZM31.1311 24.6661L24.6661 31.1311L24.6666 24.6666L31.1311 24.6661ZM51.3333 24.6666L51.3328 31.1311L44.8678 24.6661L51.3333 24.6666Z" fill="white"/>
</svg>
