<svg width="271" height="42" viewBox="0 0 271 42" fill="none" xmlns="http://www.w3.org/2000/svg">
<g clip-path="url(#clip0_1442_511)">
<path d="M35.6377 23.0673V29.0069C35.6377 29.0754 35.6363 29.1439 35.6323 29.2123C35.631 29.2257 35.631 29.2405 35.6296 29.2539C35.6269 29.2942 35.6243 29.3345 35.6202 29.3761C35.6162 29.4163 35.6122 29.4566 35.6068 29.4969C35.6028 29.5358 35.5961 29.5747 35.5907 29.6123C35.5813 29.67 35.5719 29.7264 35.5598 29.7841C35.5531 29.8204 35.5451 29.8553 35.537 29.8915C35.529 29.9224 35.5209 29.9546 35.5128 29.9868C35.5061 30.0163 35.4981 30.0445 35.4887 30.0741C35.4524 30.2043 35.4081 30.3331 35.3571 30.4593C35.3464 30.4861 35.3357 30.5143 35.3236 30.5412C35.2927 30.615 35.2592 30.6875 35.2229 30.7586C35.2055 30.7949 35.1867 30.8298 35.1679 30.8647L35.1665 30.8633L28.4471 27.1237L17.9236 21.266L25.8377 17.623L35.4954 22.9895L35.6377 23.0673Z" fill="url(#paint0_linear_1442_511)"/>
<path d="M35.5196 11.983L33.4713 13.5615L31.6579 16.4125L14.4163 6.81521L20.9679 2.21387L24.9277 4.50112H24.929L32.1854 8.69038L33.6874 9.55749C34.6122 10.0917 35.2646 10.9723 35.5196 11.983Z" fill="url(#paint1_linear_1442_511)"/>
<path d="M24.9275 4.50101L0 18.7815V12.9373C0 11.5426 0.743624 10.254 1.95034 9.55738L15.8685 1.52248C17.0752 0.825839 18.5624 0.825839 19.7705 1.52248L24.9275 4.50101Z" fill="#5BFF6D"/>
<path d="M35.6376 12.9374V14.9656L3.43758 33.2461L1.95034 32.3871C0.743624 31.6891 0 30.4018 0 29.0072V26.983L32.1852 8.69043L33.6872 9.55754C34.894 10.2542 35.6376 11.5428 35.6376 12.9374Z" fill="#5BFF6D"/>
<path d="M35.6376 22.9062V29.0069C35.6376 29.0754 35.6363 29.1438 35.6323 29.2123C35.6309 29.2257 35.6309 29.2405 35.6296 29.2539C35.6269 29.2942 35.6242 29.3344 35.6202 29.376C35.6161 29.4163 35.6121 29.4566 35.6068 29.4969C35.6027 29.5358 35.596 29.5747 35.5906 29.6123C35.5812 29.67 35.5719 29.7264 35.5598 29.7841C35.5531 29.8203 35.545 29.8552 35.537 29.8915C35.5289 29.9224 35.5208 29.9546 35.5128 29.9868C35.5061 30.0163 35.498 30.0445 35.4886 30.074C35.4524 30.2042 35.4081 30.3331 35.3571 30.4593C35.3463 30.4861 35.3356 30.5143 35.3235 30.5411C35.2927 30.615 35.2591 30.6875 35.2229 30.7586C35.2054 30.7948 35.1866 30.8297 35.1678 30.8646C35.1463 30.9036 35.1249 30.9425 35.1021 30.9801C35.0806 31.019 35.0564 31.0566 35.0336 31.0942C34.9853 31.168 34.9356 31.2418 34.8833 31.313C34.8296 31.3854 34.7745 31.4552 34.7182 31.5224C34.6886 31.5573 34.6591 31.5908 34.6296 31.623C34.6 31.6566 34.5692 31.6888 34.5383 31.721C34.4765 31.7854 34.4121 31.8485 34.345 31.9076C34.3195 31.9318 34.2927 31.9546 34.2658 31.9774C34.2497 31.9908 34.2336 32.0042 34.2175 32.0177C34.1853 32.0458 34.1517 32.0727 34.1168 32.0982C34.0833 32.125 34.0497 32.1505 34.0135 32.1747C33.9463 32.2244 33.8766 32.2714 33.8054 32.3156C33.7665 32.3398 33.7276 32.364 33.6873 32.3868L19.7705 40.4217C18.5625 41.1183 17.0752 41.1183 15.8685 40.4217L10.7786 37.4834L28.447 27.1237L35.4953 22.9895L35.6376 22.9062Z" fill="#5BFF6D"/>
<path d="M6.99866 6.64307V35.3008L3.43758 33.2458L1.95034 32.3867C0.743624 31.6887 0 30.4015 0 29.0068V12.937C0 11.5424 0.743624 10.2538 1.95034 9.55716L6.99866 6.64307Z" fill="#5BFF6D"/>
</g>
<path d="M71.072 26.528C71.072 28.2347 70.5387 29.5253 69.472 30.4C68.4267 31.2747 66.5707 31.712 63.904 31.712H53.92V11.456H55.168H63.584C65.3547 11.456 66.7307 11.648 67.712 12.032C68.7147 12.3947 69.4187 12.9387 69.824 13.664C70.2293 14.3893 70.432 15.296 70.432 16.384C70.432 17.8773 70.0693 19.04 69.344 19.872C68.64 20.6827 67.3067 21.1733 65.344 21.344V21.44C66.7947 21.5467 67.936 21.792 68.768 22.176C69.6 22.5387 70.1867 23.072 70.528 23.776C70.8907 24.48 71.072 25.3973 71.072 26.528ZM62.176 15.488H59.04V19.456H62.176C63.2213 19.456 63.9787 19.328 64.448 19.072C64.9173 18.7947 65.152 18.2613 65.152 17.472C65.152 16.704 64.9173 16.1813 64.448 15.904C63.9787 15.6267 63.2213 15.488 62.176 15.488ZM62.816 23.648H59.04V27.712H62.816C63.8613 27.712 64.6187 27.5733 65.088 27.296C65.5573 26.9973 65.792 26.4533 65.792 25.664C65.792 24.8533 65.5573 24.32 65.088 24.064C64.6187 23.7867 63.8613 23.648 62.816 23.648ZM79.0713 31.712H73.9513V10.176H79.0713V31.712ZM88.84 15.968C90.888 15.968 92.5413 16.1813 93.8 16.608C95.0587 17.0347 95.976 17.824 96.552 18.976C97.1493 20.1067 97.448 21.7493 97.448 23.904V31.712H92.808L92.648 30.24H92.552C92.1467 30.7733 91.5173 31.2 90.664 31.52C89.8107 31.84 88.7013 32 87.336 32C83.6453 32 81.8 30.272 81.8 26.816C81.8 25.344 82.28 24.192 83.24 23.36C84.2213 22.5067 85.7573 22.08 87.848 22.08H92.584C92.4347 21.184 92.0507 20.5867 91.432 20.288C90.8133 19.968 89.7573 19.808 88.264 19.808C87.3253 19.808 86.3973 19.8827 85.48 20.032C84.584 20.16 83.7947 20.3093 83.112 20.48L83.016 20.416L83.048 16.704C83.4747 16.576 84.0187 16.4587 84.68 16.352C85.3413 16.224 86.0347 16.128 86.76 16.064C87.5067 16 88.2 15.968 88.84 15.968ZM88.648 28.224C89.9707 28.224 90.9627 28.064 91.624 27.744C92.2853 27.4027 92.6267 26.8693 92.648 26.144V25.344H89.032C88.0933 25.344 87.432 25.4827 87.048 25.76C86.6853 26.016 86.504 26.368 86.504 26.816C86.504 27.3493 86.696 27.7227 87.08 27.936C87.464 28.128 87.9867 28.224 88.648 28.224ZM112.923 27.2V31.36C112.39 31.5733 111.6 31.7333 110.555 31.84C109.51 31.9467 108.4 32 107.227 32C105.542 32 104.134 31.7653 103.003 31.296C101.894 30.8267 101.062 30.016 100.507 28.864C99.9737 27.712 99.6963 26.112 99.675 24.064C99.675 21.952 99.963 20.3093 100.539 19.136C101.136 17.9627 102 17.1413 103.131 16.672C104.262 16.2027 105.616 15.968 107.195 15.968C108.134 15.968 109.126 16.032 110.171 16.16C111.216 16.288 112.07 16.4587 112.731 16.672L112.763 20.96L112.667 21.024C112.027 20.896 111.344 20.8 110.619 20.736C109.894 20.672 109.179 20.64 108.475 20.64C107.046 20.64 106.054 20.9067 105.499 21.44C104.944 21.9733 104.667 22.8693 104.667 24.128C104.667 25.088 104.784 25.8027 105.019 26.272C105.254 26.7413 105.648 27.0507 106.203 27.2C106.758 27.3493 107.515 27.424 108.475 27.424C109.222 27.424 109.936 27.392 110.619 27.328C111.302 27.264 112.027 27.1893 112.795 27.104L112.923 27.2ZM120.915 31.712H115.795V10.176H120.915V22.72H120.979L125.011 16.128H130.643V16.256L125.907 23.616V23.744L131.411 31.712H125.523L121.011 24.512L120.915 24.48V31.712ZM138.103 31.712H132.983V16.128H137.143L137.559 19.328H137.655C137.847 18.1333 138.305 17.28 139.031 16.768C139.756 16.2347 140.833 15.968 142.263 15.968C142.839 15.968 143.361 16 143.831 16.064C144.3 16.1067 144.695 16.1493 145.015 16.192V21.184L144.951 21.248C144.609 21.1627 144.215 21.088 143.767 21.024C143.34 20.96 142.849 20.928 142.295 20.928C141.505 20.928 140.791 21.056 140.151 21.312C139.532 21.568 139.041 22.0693 138.679 22.816C138.337 23.5413 138.167 24.6293 138.167 26.08L138.103 31.712ZM146.144 24.032C146.144 21.1733 146.752 19.1147 147.968 17.856C149.184 16.5973 151.242 15.968 154.144 15.968C156.085 15.968 157.642 16.2453 158.816 16.8C159.989 17.3547 160.832 18.2293 161.344 19.424C161.877 20.5973 162.144 22.1333 162.144 24.032C162.144 25.9093 161.877 27.4347 161.344 28.608C160.832 29.7813 159.989 30.6453 158.816 31.2C157.642 31.7333 156.085 32 154.144 32C151.242 32 149.184 31.3813 147.968 30.144C146.752 28.8853 146.144 26.848 146.144 24.032ZM154.144 27.616C155.381 27.616 156.213 27.3493 156.64 26.816C157.088 26.2613 157.312 25.3013 157.312 23.936C157.312 22.6347 157.088 21.7067 156.64 21.152C156.213 20.576 155.381 20.288 154.144 20.288C152.949 20.288 152.117 20.576 151.648 21.152C151.2 21.7067 150.976 22.6347 150.976 23.936C150.976 25.3013 151.2 26.2613 151.648 26.816C152.117 27.3493 152.949 27.616 154.144 27.616ZM164.154 27.296C165.818 27.7653 167.663 28 169.69 28C170.671 28 171.407 27.968 171.898 27.904C172.388 27.84 172.719 27.7333 172.89 27.584C173.06 27.4347 173.146 27.232 173.146 26.976C173.146 26.6133 173.007 26.3893 172.73 26.304C172.474 26.2187 171.951 26.1013 171.161 25.952L168.634 25.472C167.012 25.152 165.839 24.6507 165.114 23.968C164.41 23.264 164.058 22.2187 164.058 20.832C164.058 18.9547 164.612 17.6747 165.722 16.992C166.852 16.3093 168.644 15.968 171.098 15.968C172.57 15.968 173.86 16.0533 174.97 16.224C176.1 16.3733 177.039 16.5653 177.786 16.8L177.722 20.672L177.626 20.768C175.898 20.2133 174.01 19.936 171.962 19.936C170.959 19.936 170.255 20.0107 169.85 20.16C169.466 20.288 169.274 20.5547 169.274 20.96C169.274 21.1733 169.327 21.344 169.434 21.472C169.562 21.6 169.839 21.728 170.266 21.856C170.692 21.9627 171.364 22.1013 172.282 22.272L174.618 22.72C175.919 22.9973 176.879 23.456 177.498 24.096C178.116 24.736 178.426 25.7493 178.426 27.136C178.426 28.352 178.202 29.3227 177.754 30.048C177.306 30.752 176.548 31.2533 175.482 31.552C174.436 31.8507 172.986 32 171.13 32C169.722 32 168.42 31.936 167.226 31.808C166.052 31.6587 164.996 31.488 164.058 31.296V27.36L164.154 27.296ZM194.867 31.2C194.269 31.4133 193.437 31.6053 192.371 31.776C191.325 31.9253 190.077 32 188.627 32C186.792 32 185.224 31.7653 183.923 31.296C182.643 30.8053 181.672 29.984 181.011 28.832C180.349 27.6587 180.019 26.0373 180.019 23.968C180.019 21.152 180.659 19.1147 181.939 17.856C183.24 16.5973 185.245 15.968 187.955 15.968C189.896 15.968 191.421 16.2453 192.531 16.8C193.661 17.3547 194.461 18.144 194.931 19.168C195.421 20.1707 195.667 21.3653 195.667 22.752C195.667 23.1573 195.645 23.5947 195.603 24.064C195.581 24.5333 195.528 24.992 195.443 25.44L195.315 25.568H184.787C184.936 26.5067 185.373 27.1253 186.099 27.424C186.845 27.7227 188.051 27.872 189.715 27.872C190.824 27.872 191.741 27.8507 192.467 27.808C193.213 27.744 193.971 27.6587 194.739 27.552L194.867 27.648V31.2ZM191.219 22.208C191.219 21.696 191.133 21.2587 190.963 20.896C190.813 20.512 190.504 20.224 190.035 20.032C189.565 19.8187 188.872 19.712 187.955 19.712C186.611 19.712 185.725 19.9467 185.299 20.416C184.893 20.864 184.691 21.4613 184.691 22.208H191.219ZM223.087 27.328V31.36C222.063 31.5733 221.06 31.7333 220.079 31.84C219.097 31.9467 217.935 32 216.591 32C214.863 32 213.401 31.8507 212.207 31.552C211.033 31.2533 210.084 30.7307 209.359 29.984C208.655 29.216 208.143 28.1387 207.823 26.752C207.503 25.3653 207.343 23.584 207.343 21.408C207.343 19.3173 207.503 17.6 207.823 16.256C208.143 14.912 208.655 13.8773 209.359 13.152C210.084 12.4053 211.033 11.8933 212.207 11.616C213.401 11.3173 214.863 11.168 216.591 11.168C217.935 11.168 219.097 11.2213 220.079 11.328C221.06 11.4133 222.063 11.5733 223.087 11.808V15.968L222.991 16.032C222.095 15.8187 221.231 15.6693 220.399 15.584C219.567 15.4773 218.543 15.424 217.327 15.424C216.345 15.424 215.535 15.4987 214.895 15.648C214.276 15.776 213.785 16.0427 213.423 16.448C213.06 16.8533 212.804 17.4507 212.655 18.24C212.527 19.0293 212.463 20.0853 212.463 21.408C212.463 22.7947 212.527 23.9147 212.655 24.768C212.804 25.6 213.06 26.2293 213.423 26.656C213.785 27.0827 214.276 27.3707 214.895 27.52C215.535 27.6693 216.345 27.744 217.327 27.744C218.521 27.744 219.535 27.712 220.367 27.648C221.22 27.5627 222.073 27.4133 222.927 27.2L223.087 27.328ZM230.915 31.712H225.795V10.176H230.915V31.712ZM239.884 32C237.921 32 236.524 31.4773 235.692 30.432C234.86 29.3867 234.444 27.8933 234.444 25.952V16.128H239.564L239.596 24.704C239.596 25.664 239.766 26.3467 240.108 26.752C240.449 27.136 241.142 27.328 242.188 27.328C243.19 27.328 243.862 27.1573 244.204 26.816C244.566 26.4533 244.758 25.8453 244.78 24.992V16.128H249.9V31.712H245.036L244.78 29.952H244.684C244.406 30.5707 243.841 31.072 242.988 31.456C242.134 31.8187 241.1 32 239.884 32ZM269.541 23.232C269.541 26.112 268.954 28.2987 267.781 29.792C266.607 31.264 264.613 32 261.797 32C260.218 32 258.746 31.9467 257.381 31.84C256.037 31.712 254.853 31.5627 253.829 31.392L253.733 31.328V10.176H258.853V18.528H258.981C259.279 17.76 259.77 17.1413 260.453 16.672C261.157 16.2027 262.149 15.968 263.429 15.968C267.503 15.968 269.541 18.3893 269.541 23.232ZM258.853 23.776V27.52C259.365 27.6053 259.962 27.648 260.645 27.648C261.647 27.648 262.426 27.5627 262.981 27.392C263.557 27.2 263.962 26.8373 264.197 26.304C264.431 25.7707 264.549 25.0027 264.549 24C264.549 22.7413 264.367 21.8133 264.005 21.216C263.642 20.6187 262.895 20.32 261.765 20.32C260.911 20.32 260.207 20.5867 259.653 21.12C259.119 21.632 258.853 22.5173 258.853 23.776Z" fill="white"/>
<defs>
<linearGradient id="paint0_linear_1442_511" x1="34.5638" y1="27.4432" x2="20.2685" y2="17.6445" gradientUnits="userSpaceOnUse">
<stop stop-color="#00FFA3"/>
<stop offset="1" stop-color="#00FFA3" stop-opacity="0"/>
</linearGradient>
<linearGradient id="paint1_linear_1442_511" x1="32.2149" y1="13.8863" x2="19.2619" y2="5.49708" gradientUnits="userSpaceOnUse">
<stop stop-color="#00FFA3"/>
<stop offset="1" stop-color="#00FFA3" stop-opacity="0"/>
</linearGradient>
<clipPath id="clip0_1442_511">
<rect width="36" height="40" fill="white" transform="translate(0 1)"/>
</clipPath>
</defs>
</svg>
