<svg width="75" height="75" viewBox="0 0 75 75" fill="none" xmlns="http://www.w3.org/2000/svg">
<circle cx="37.5" cy="37.5" r="37.5" fill="#2E353D"/>
<path d="M38.0083 54.6714C28.8035 54.6714 21.3416 47.2096 21.3416 38.0048C21.3416 28.8001 28.8035 21.3381 38.0083 21.3381C47.2129 21.3381 54.6749 28.8001 54.6749 38.0048C54.6749 47.2096 47.2129 54.6714 38.0083 54.6714ZM36.3416 44.6714V48.0047H39.6749V44.6714H41.3416C43.6428 44.6714 45.5083 42.8059 45.5083 40.5048C45.5083 39.5668 45.1983 38.7013 44.6753 38.0048C45.1983 37.3084 45.5083 36.4428 45.5083 35.5048C45.5083 33.2036 43.6428 31.3381 41.3416 31.3381H39.6749V28.0048H36.3416V31.3381H31.3416V44.6714H36.3416ZM34.6749 39.6714H41.3416C41.8018 39.6714 42.1749 40.0446 42.1749 40.5048C42.1749 40.9651 41.8018 41.3381 41.3416 41.3381H34.6749V39.6714ZM34.6749 34.6714H41.3416C41.8018 34.6714 42.1749 35.0446 42.1749 35.5048C42.1749 35.9651 41.8018 36.3381 41.3416 36.3381H34.6749V34.6714Z" fill="white"/>
</svg>
