<svg width="858" height="516" viewBox="0 0 858 516" fill="none" xmlns="http://www.w3.org/2000/svg">
<path opacity="0.2" d="M857.993 91.3587C856.698 56.9431 834.473 25.7377 804.281 10.2379C773.001 -5.81487 736.459 -1.60801 708.776 19.8148C682.069 40.506 665.043 75.3505 671.649 109.381C677.831 141.214 705.885 172.871 741.034 164.228C770.714 156.925 793.166 123.727 786.111 93.4567C779.056 63.1869 747.83 43.5745 717.876 43.6011C680.083 43.6458 653.574 75.7451 637.577 106.547C618.123 143.843 608.172 189.535 573.727 216.825C546.57 238.34 509.063 244.624 475.796 236.138C459.105 231.997 443.712 223.751 431.01 212.147C417.263 199.366 406.998 179.881 408.516 160.655C410.202 139.268 428.976 126.992 449.464 129.035C471.989 131.301 489.042 148.223 503.655 164.025C531.552 194.209 558.097 231.224 560.85 273.679C563.242 311.269 545.69 352.876 508.057 365.949C465.393 380.766 421.755 357.169 391.532 328.156C375.138 312.413 360.79 294.602 346.423 277.025C331.814 259.157 317.316 241.173 301.864 223.992C272.553 191.469 239.332 161.747 198.725 144.298C160.636 127.925 117.406 123.182 78.3071 139.069C41.88 153.811 12.8842 182.874 -8.17113 215.506C-34.5265 256.261 -50.2719 302.84 -67.4015 347.932L-122.357 492.565L-148.703 561.919C-149.271 563.411 -147.023 564.474 -146.446 562.994L-92.1464 420.098C-74.4884 373.608 -57.8204 326.593 -38.6347 280.711C-21.5443 239.87 -0.056307 199.668 33.6492 170.114C48.575 157.024 65.626 146.207 84.3593 139.469C104.79 132.293 126.615 130.018 148.078 132.826C241.557 144.396 300.424 225.635 356.121 292.751C382.666 324.718 412.623 358.055 454.282 369.15C472.286 373.963 491.914 374.431 509.621 368.077C525.63 362.17 539.209 351.071 548.197 336.547C567.976 305.271 567.159 265.97 553.386 232.619C545.657 213.976 534.474 196.949 521.899 181.292C509.045 165.303 494.801 148.436 477.58 137.065C462.914 127.386 443.626 122.37 426.899 129.879C411.958 136.596 404.905 151.909 406.043 167.775C408.52 202.331 438.602 227.344 469.669 236.989C500.482 246.545 535.519 243.202 563.479 226.854C599.053 206.02 613.713 166.298 629.23 130.351C643.916 96.3029 665.815 55.1798 705.76 47.2811C737.667 40.9693 775.054 60.3692 783.413 92.9018C791.881 125.77 763.08 163.451 728.974 163.175C688.098 162.857 667.544 114.44 674.138 79.4051C680.733 44.3703 709.347 14.0199 743.853 5.18478C779.772 -3.98857 817.279 13.5125 838.414 42.9106C848.767 57.0848 854.703 74.0101 855.477 91.5589C855.54 93.185 858.022 92.9224 857.993 91.3587Z" fill="white"/>
</svg>
