<svg width="75" height="75" viewBox="0 0 75 75" fill="none" xmlns="http://www.w3.org/2000/svg">
<circle cx="37.5" cy="37.5" r="37.5" fill="#2E353D"/>
<path d="M48.0016 51.3333H51.3333V54.6666H37.9999C28.7952 54.6666 21.3333 47.2046 21.3333 37.9999C21.3333 28.7952 28.7952 21.3333 37.9999 21.3333C47.2046 21.3333 54.6666 28.7952 54.6666 37.9999C54.6666 43.4519 52.0487 48.2924 48.0016 51.3333ZM37.9999 34.6666C39.8409 34.6666 41.3333 33.1742 41.3333 31.3333C41.3333 29.4923 39.8409 27.9999 37.9999 27.9999C36.1589 27.9999 34.6666 29.4923 34.6666 31.3333C34.6666 33.1742 36.1589 34.6666 37.9999 34.6666ZM31.3333 41.3333C33.1742 41.3333 34.6666 39.8409 34.6666 37.9999C34.6666 36.1589 33.1742 34.6666 31.3333 34.6666C29.4923 34.6666 27.9999 36.1589 27.9999 37.9999C27.9999 39.8409 29.4923 41.3333 31.3333 41.3333ZM44.6666 41.3333C46.5076 41.3333 47.9999 39.8409 47.9999 37.9999C47.9999 36.1589 46.5076 34.6666 44.6666 34.6666C42.8256 34.6666 41.3333 36.1589 41.3333 37.9999C41.3333 39.8409 42.8256 41.3333 44.6666 41.3333ZM37.9999 47.9999C39.8409 47.9999 41.3333 46.5076 41.3333 44.6666C41.3333 42.8256 39.8409 41.3333 37.9999 41.3333C36.1589 41.3333 34.6666 42.8256 34.6666 44.6666C34.6666 46.5076 36.1589 47.9999 37.9999 47.9999Z" fill="white"/>
</svg>
