<svg width="37" height="30" viewBox="0 0 37 30" fill="none" xmlns="http://www.w3.org/2000/svg">
<path d="M36.926 3.56363C35.568 4.14942 34.0902 4.57102 32.568 4.73522C34.1484 3.79633 35.3319 2.31303 35.8964 0.563627C34.4134 1.44583 32.7888 2.06444 31.0947 2.39203C30.3866 1.63505 29.5302 1.032 28.5788 0.620465C27.6275 0.208931 26.6016 -0.00227123 25.5651 1.84189e-05C21.3713 1.84189e-05 17.9985 3.39942 17.9985 7.57102C17.9985 8.15682 18.0695 8.74262 18.1849 9.30622C11.9053 8.97782 6.30474 5.97783 2.58137 1.38463C1.90294 2.54343 1.54741 3.86285 1.55179 5.20564C1.55179 7.83285 2.88759 10.1494 4.92457 11.5118C3.72414 11.4646 2.55183 11.1346 1.50297 10.5488V10.642C1.50297 14.321 4.10356 17.3698 7.56954 18.071C6.91876 18.2401 6.2493 18.3265 5.57693 18.3284C5.08433 18.3284 4.61835 18.2796 4.14794 18.213C5.10652 21.213 7.89794 23.392 11.2219 23.463C8.62131 25.5 5.36392 26.6982 1.82694 26.6982C1.19232 26.6982 0.606523 26.676 -0.00146484 26.605C3.35356 28.7574 7.33433 30 11.6213 30C25.5385 30 33.1538 18.4704 33.1538 8.46303C33.1538 8.13463 33.1538 7.80623 33.1316 7.47782C34.605 6.39942 35.8964 5.06362 36.926 3.56363Z" fill="white"/>
</svg>
