<svg width="1920" height="1105" viewBox="0 0 1920 1105" fill="none" xmlns="http://www.w3.org/2000/svg">
<path d="M1515.05 -388.144L-171.594 -124.984L-787.101 1466.71L284.036 2795.24L1970.68 2532.08L2586.18 940.388L1515.05 -388.144Z" stroke="white" stroke-opacity="0.15" stroke-width="1.18061" stroke-miterlimit="10"/>
<path d="M-46.0844 -66.5024C-39.5328 -75.4764 719.744 -199.003 731.741 -200.875C743.738 -202.747 1504.56 -316.394 1510 -309.292C1515.45 -302.19 2477.63 888.644 2479.5 900.641C2481.37 912.638 1934.75 2338.88 1928.2 2347.86C1921.65 2356.83 1162.26 2479.65 1153.79 2480.97C1145.32 2482.29 381.088 2597.2 375.642 2590.09C370.197 2582.99 -599.043 1393.26 -600.914 1381.27C-602.786 1369.27 -52.636 -57.5285 -46.0844 -66.5024Z" stroke="white" stroke-opacity="0.15" stroke-width="1.18061" stroke-miterlimit="10"/>
<path d="M78.8324 -7.18634C92.6413 -25.2444 767.873 -140.719 791.867 -144.462C815.861 -148.206 1494.88 -244.03 1512.83 -230.927C1530.78 -217.824 2376.84 835.703 2381.02 862.52C2385.21 889.337 1899.86 2147.71 1887.2 2168.48C1874.54 2189.25 1198.16 2302.01 1174.16 2305.75C1150.17 2309.5 471.855 2405.21 453.202 2392.22C434.548 2379.22 -410.807 1325.59 -414.992 1298.77C-419.176 1271.95 62.9064 11.2021 78.8324 -7.18634Z" stroke="white" stroke-opacity="0.15" stroke-width="1.18061" stroke-miterlimit="10"/>
<path d="M204.452 51.9999C223.997 24.3723 816.375 -84.6806 851.661 -90.1861C886.946 -95.6915 1484.06 -174.399 1511.09 -154.039C1538.12 -133.678 2272.52 783.298 2278.13 819.289C2283.75 855.28 1863.39 1950.98 1843.73 1977.9C1824.08 2004.83 1232.18 2112.36 1196.19 2117.97C1160.2 2123.59 563.682 2201.48 536.76 2181.83C509.838 2162.17 -223.74 1245.79 -229.246 1210.51C-234.751 1175.22 184.797 78.9219 204.452 51.9999Z" stroke="white" stroke-opacity="0.15" stroke-width="1.18061" stroke-miterlimit="10"/>
<path d="M329.962 110.484C356.168 74.5885 864.833 -24.2943 912.116 -31.6716C959.398 -39.0489 1474.71 -99.9337 1510.61 -73.7274C1546.51 -47.521 2167.49 731.003 2174.98 778.991C2182.47 826.979 1828.05 1756.97 1801.85 1792.87C1775.64 1828.76 1267.09 1928.35 1219.1 1935.84C1171.11 1943.33 657.095 2003.28 621.199 1977.08C585.303 1950.87 -36.3882 1172.46 -43.7654 1125.17C-51.1427 1077.89 300.933 146.821 329.962 110.484Z" stroke="white" stroke-opacity="0.15" stroke-width="1.18061" stroke-miterlimit="10"/>
<path d="M454.879 169.8C488.232 124.114 912.853 33.2839 972.132 24.0348C1031.41 14.7857 1464.23 -28.1663 1509.21 5.29736C1554.19 38.7617 2063.17 678.619 2072.53 738.604C2081.89 798.59 1792.73 1562.98 1757.85 1608.18C1722.98 1653.38 1300.58 1744.59 1240.6 1753.95C1180.61 1763.3 749.21 1806.04 703.524 1772.68C657.838 1739.33 150.261 1099.25 141.012 1039.97C131.763 980.692 422.121 214.67 454.879 169.8Z" stroke="white" stroke-opacity="0.15" stroke-width="1.18061" stroke-miterlimit="10"/>
<path d="M580.388 228.282C619.698 174.438 960.98 91.5512 1032.26 80.4302C1103.53 69.3092 1454.55 44.1798 1508.39 83.4893C1562.24 122.799 1958.85 626.214 1969.98 697.491C1981.1 768.767 1756.69 1369.08 1717.49 1423.63C1678.29 1478.18 1336.9 1560.36 1264.92 1571.59C1192.93 1582.82 843.329 1607.73 789.485 1568.42C735.641 1529.11 339.024 1025.7 327.793 953.714C316.562 881.732 539.072 283.162 580.388 228.282Z" stroke="white" stroke-opacity="0.15" stroke-width="1.18061" stroke-miterlimit="10"/>
<path d="M705.302 287.58C751.869 224.652 1009.11 149.818 1092.38 136.825C1175.65 123.832 1444.17 116.636 1506.99 162.497C1569.8 208.358 1853.83 573.92 1866.82 657.193C1879.81 740.467 1721.36 1175.07 1674.9 1238.7C1628.45 1302.33 1371.8 1376.35 1289.94 1389.13C1208.08 1401.9 938.859 1409.2 875.335 1363.45C811.812 1317.7 529.199 951.921 516.096 867.941C502.993 783.962 659.441 350.398 705.302 287.58Z" stroke="white" stroke-opacity="0.15" stroke-width="1.18061" stroke-miterlimit="10"/>
<path d="M830.925 346.789C883.228 274.291 1057.13 207.399 1152.4 192.535C1247.67 177.67 1433.68 188.406 1506.29 241.415C1578.9 294.423 1749.51 521.536 1764.38 616.807C1779.24 712.077 1685.33 981.187 1633.02 1053.68C1580.72 1126.18 1403.89 1192.81 1310.73 1207.34C1217.58 1221.88 1029.45 1211.47 957.66 1159.06C885.869 1106.65 714.327 878.231 699.462 782.961C684.598 687.69 777.101 418.801 830.925 346.789Z" stroke="white" stroke-opacity="0.15" stroke-width="1.18061" stroke-miterlimit="10"/>
<path d="M1662.26 578.509C1676.49 668.449 1659.1 760.547 1613.04 839.097C1566.99 917.654 1495.12 977.806 1409.68 1009.3C1324.23 1040.8 1230.52 1041.7 1144.49 1011.84C1058.47 981.974 985.458 923.202 937.913 845.544C890.36 767.886 871.216 676.139 883.738 585.942C896.253 495.747 939.664 412.68 1006.57 350.91C1073.47 289.132 1159.73 252.468 1250.63 247.162C1341.53 241.863 1431.47 268.247 1505.1 321.826C1546.99 352.064 1582.46 390.329 1609.44 434.394C1636.42 478.459 1654.37 527.446 1662.26 578.509Z" stroke="white" stroke-opacity="0.15" stroke-width="1.18061" stroke-miterlimit="10"/>
</svg>
